<svg xmlns="http://www.w3.org/2000/svg" xmlns:xlink="http://www.w3.org/1999/xlink" viewBox="0 0 399.417 396.417"><defs><style>.cls-1{fill:#e0e0e2}.cls-6{fill:#eeedf3;opacity:.2}.cls-7{fill:#ff3131}.cls-9{fill:#010080}.cls-10{fill:#f8b7b0}.cls-14{fill:#4003a9}.cls-19{fill:#3f3f3f;opacity:.1}.cls-21{fill:#fff}.cls-22{fill:#e2e2e2}.cls-25{fill:#ed9e00}.cls-27{fill:#ffb6ea}</style><linearGradient id="linear-gradient" x1=".422" y1=".038" x2=".621" y2="1.222" gradientUnits="objectBoundingBox"><stop offset="0" stop-color="#0ff"/><stop offset=".369" stop-color="#0071bc"/><stop offset=".761" stop-color="#9e005d"/><stop offset="1" stop-color="#ed1e79"/></linearGradient><linearGradient id="linear-gradient-2" x1="1.052" y1=".892" x2="-.375" y2="-.229" xlink:href="#linear-gradient"/><linearGradient id="linear-gradient-3" x1=".633" y1="1.012" x2=".364" y2="-.153" gradientUnits="objectBoundingBox"><stop offset="0" stop-color="#3301a0"/><stop offset="1" stop-color="#6a01a0"/></linearGradient><linearGradient id="linear-gradient-4" x1=".467" y1="1.013" x2=".514" y2=".048" gradientUnits="objectBoundingBox"><stop offset="0" stop-color="#f7631e"/><stop offset="1" stop-color="#febc66"/></linearGradient><linearGradient id="linear-gradient-5" x1=".762" y1="1.482" x2=".133" y2="-.964" gradientUnits="objectBoundingBox"><stop offset="0" stop-color="#0ff"/><stop offset="1" stop-color="#9e005d"/></linearGradient><linearGradient id="linear-gradient-6" x1="1.14" y1=".558" x2=".197" y2=".447" gradientUnits="objectBoundingBox"><stop offset="0" stop-color="#0ff"/><stop offset=".693" stop-color="#9e005d"/><stop offset="1" stop-color="#ed1e79"/></linearGradient><linearGradient id="linear-gradient-7" x1="-.052" y1="1.382" x2="2.931" y2="-3.391" xlink:href="#linear-gradient-6"/><linearGradient id="linear-gradient-8" x1="-.813" y1="1.849" x2="3.187" y2="-2.263" xlink:href="#linear-gradient-6"/></defs><g id="Group_517" data-name="Group 517" transform="translate(.038 .001)"><ellipse id="Ellipse_27" data-name="Ellipse 27" class="cls-1" cx="48.749" cy="6.046" rx="48.749" ry="6.046" transform="translate(114.348 384.323)"/><g id="Group_495" data-name="Group 495" transform="translate(104.476 57.962)"><g id="Group_494" data-name="Group 494"><g id="Group_493" data-name="Group 493"><g id="Group_492" data-name="Group 492"><path id="Path_1029" data-name="Path 1029" d="M261.465 74.747L143.939 31.1a7 7 0 0 0-8.881 3.968L55.7 248.958a7 7 0 0 0 3.968 8.881l117.526 43.647a7 7 0 0 0 8.881-3.968l79.359-213.89a6.843 6.843 0 0 0-3.969-8.881z" transform="translate(-55.275 -30.675)" fill="url(#linear-gradient)"/></g></g></g></g><path id="Path_1030" data-name="Path 1030" d="M128.5 25.612c-8.125 3.4-39.679 16.628-57.252 50.449-3.779 7.18-21.351 41.191-8.314 71.234 17.194 39.679 69.344 30.043 93.341 67.455 20.6 32.121-22.107 63.676-3.779 102.033 9.636 20.029 31.743 36.656 52.15 38.168 63.865 4.724 178.746-132.831 132.075-240.91C302.9 35.437 194.441-1.786 128.5 25.612z" transform="translate(51.793 14.824)" fill="url(#linear-gradient-2)"/><path id="Path_1031" data-name="Path 1031" d="M225.01 350.781a47.761 47.761 0 0 1-5.291-.189c-33.255-1.7-59.141-12.849-73.123-31.743-14.927-20.218-11.715-41.758-8.314-64.621 3.023-20.218 6.235-41.191-4.346-61.786-9.447-18.328-27.4-21.729-46.293-25.508-19.462-3.779-39.49-7.747-52.717-27.4-14.171-20.784-17.383-51.583-7.558-71.8C41.729 38.071 91.423 14.452 150.753 8.972c77.091-7.18 144.547 17.762 180.635 66.321C388.64 152.952 362 276.9 300.023 323.762l-.567-.756.567.756c-28.532 21.918-55.74 27.019-75.013 27.019zM176.639 9.728c-8.314 0-17.005.378-25.7 1.134-58.763 5.48-107.7 28.72-121.683 57.818-9.447 19.651-6.424 49.694 7.369 69.911 12.849 18.895 32.5 22.674 51.583 26.453 19.462 3.779 37.79 7.369 47.615 26.453 10.77 21.162 7.558 42.325 4.535 62.92-3.4 22.3-6.613 43.458 7.936 63.109 13.6 18.517 39.112 29.476 71.612 30.988 19.084.945 48.182-2.834 79.17-26.264l.567.756-.567-.756c61.224-46.482 87.674-169.109 30.99-246.012-31.744-42.513-87.866-66.51-153.427-66.51z" transform="translate(19.335 6.9)" opacity=".35" fill="#aaaae8"/><path id="Path_1032" data-name="Path 1032" d="M183.414 209.447c-3.023 0-6.046 0-9.07-.189C128.619 206.8 91.4 186.4 74.58 154.841 47.938 104.58 74.2 34.48 114.448 12.373c20.407-11.148 37.979-10.959 49.316-8.692 19.273 3.779 33.444 12.66 39.868 24.941 6.991 13.037 3.212 25.319-.756 38.357-3.59 11.526-7.18 23.619-2.834 36.656 3.968 11.526 14.171 15.116 24.941 18.895 10.959 3.968 22.3 7.936 28.531 20.6 6.424 13.415 5.668 31.555-1.889 42.514-10.203 14.733-36.845 23.803-68.211 23.803zM150.915 3.492c-10.014 0-22.485 2.267-36.089 9.825-39.868 21.918-65.943 91.262-39.3 141.145 16.628 31.177 53.662 51.394 99.009 53.85 34.956 1.889 65.565-7.369 76.335-23.241 7.369-10.581 7.936-28.531 1.7-41.569-5.857-12.282-17.005-16.25-27.964-20.029-10.959-3.968-21.351-7.558-25.508-19.651-4.535-13.226-.756-25.319 2.834-37.223 3.968-12.849 7.558-24.941.756-37.6-6.424-11.9-20.406-20.6-39.3-24.374a76.075 76.075 0 0 0-12.473-1.133zm-36.278 9.259z" transform="translate(56.774 2.177)" opacity=".09" fill="#aaaae8"/><g id="Group_496" data-name="Group 496" transform="translate(123.984 73.691)"><path id="Path_1033" data-name="Path 1033" class="cls-6" d="M217.435 56.761L204.4 65.453 90.65 141.788 72.7 154.07l24.752-66.888L115.4 75.089l41-27.4L169.253 39z" transform="translate(-59.285 -39)"/><path id="Path_1034" data-name="Path 1034" class="cls-6" d="M249.636 56.435L236.6 65.127 83.55 167.915 65.6 180.008l8.692-23.619L92.431 144.3l127.163-85.4 13.037-8.7z" transform="translate(-65.6 -29.038)"/></g><g id="Group_497" data-name="Group 497" transform="translate(240.566 214.836)"><path id="Rectangle_2" data-name="Rectangle 2" class="cls-7" transform="rotate(-9.051 96.998 7.379)" d="M0 0h97.309v54.984H0z"/><path id="Path_1035" data-name="Path 1035" d="M179.639 148.467l43.836-34.767L127.3 129z" transform="translate(-127.3 -113.7)" fill="#ff7373"/></g><g id="Group_499" data-name="Group 499" transform="translate(102.555 111.727)"><path id="Path_1036" data-name="Path 1036" class="cls-9" d="M112.627 79.114C116.406 75.9 119.618 60.03 111.3 64s-1.889 15.3-1.889 15.3z" transform="translate(-7.305 -55.364)"/><path id="Path_1037" data-name="Path 1037" class="cls-10" d="M116.642 102.62a16.1 16.1 0 0 0 14.738-3.4c1.7-1.7-2.834-4.346-4.535-6.424a6.337 6.337 0 0 1-.567-3.968 38.312 38.312 0 0 1 2.267-8.5L113.43 75.6s-.378 7.747-.756 10.77a2.731 2.731 0 0 1-.378 1.323c-.756 1.7-2.645 2.267-6.046 4.346-3.968 2.267 2.834 8.691 10.392 10.581z" transform="translate(-9.053 -44.481)"/><path id="Path_1038" data-name="Path 1038" d="M109.089 86.27a.694.694 0 0 1-.189.567c1.512 1.889 3.4 3.212 4.913 3.4 2.456.378 5.668-.567 9.07-2.834a47.974 47.974 0 0 1 2.078-7.18L109.845 75.5c0 .189-.378 7.936-.756 10.77z" transform="translate(-5.656 -44.57)" fill="#e49f98"/><path id="Path_1039" data-name="Path 1039" class="cls-10" d="M131.837 82.747c-1.7 7.369-2.645 10.959-6.235 13.6s-7.18 3.59-9.825 3.4c-3.4-.378-7.747-6.424-8.125-9.636-.567-3.4-.567-11.9 1.512-20.029 1.134-4.157 6.8-8.5 12.093-7.747 5.101.572 14.737 2.465 10.58 20.412z" transform="translate(-7.053 -56.352)"/><path id="Path_1040" data-name="Path 1040" class="cls-10" d="M106.611 74.591c.189 2.834 1.7 4.913 3.212 4.913 1.512-.189 2.456-2.456 2.267-5.291s-1.7-4.913-3.212-4.913c-1.511.189-2.456 2.456-2.267 5.291z" transform="translate(-7.713 -50.085)"/><path id="Path_1042" data-name="Path 1042" d="M204.663 135.217l-34.767 9.07-9.259-26.264s-7.18 43.836-8.692 48.938c-1.323 4.913-2.645 5.291-4.724 4.913l-34.956-6.046c-2.456-.378-3.59-3.212-2.456-7.747.945-3.59 8.5-33.255 10.014-47.048a145.074 145.074 0 0 1-11.148 20.784L75.8 119.345l3.59-10.014 22.863 6.235S110 99.505 118.691 90.058c2.645-2.834 10.014-6.424 14.36-7.18a26.551 26.551 0 0 1 3.4-.378c.189 4.157 3.968 6.991 6.991 7.558s9.258-.378 10.014-3.59a22.221 22.221 0 0 1 3.59 1.889c4.346 2.834 7.18 3.968 9.07 7.747 3.212 6.235 12.66 33.822 12.66 33.822l26.075-5.857z" transform="translate(-35.098 -38.343)" fill="url(#linear-gradient-3)"/><g id="Group_498" data-name="Group 498" transform="translate(0 121.428)"><path id="Path_1043" data-name="Path 1043" class="cls-14" d="M110.032 200.7c.756 1.512 4.157 5.291 9.447 7.936 5.1 2.645 15.872 5.1 9.447 6.613s-10.581 1.323-20.406-1.889c-3.968-1.134-3.59-1.323-7.936-1.134s-7.558 1.323-5.48-6.991c1.891-8.502 12.661-9.447 14.928-4.535z" transform="translate(-18.503 -57.279)"/><path id="Path_1044" data-name="Path 1044" class="cls-14" d="M70.775 182.938c-.378 1.7-4.724 5.48-9.259 9.258s-9.636 5.669-6.046 7.558c6.046 3.212 9.07.378 17.761-4.724 3.779-2.078 3.59-1.323 7.558-2.834 2.834-1.134 5.1-2.456 3.968-8.125-1.7-8.691-12.848-6.613-13.982-1.133z" transform="translate(-54.259 -74.661)"/><path id="Path_1045" data-name="Path 1045" d="M163.054 133.607s-4.913 33.822-8.125 54.039q-.567 3.4-1.134 6.235a50.5 50.5 0 0 1-1.134 6.046c-.567 2.267-1.323 6.424-2.456 11.715-.378 1.889-.756 3.968-1.323 6.046-3.59 17.572-8.314 41.38-8.5 44.4a42.053 42.053 0 0 0 0 6.991c0 .378-.378.756-.756.567l-4.724-2.267h-.378c-1.512.567-10.581 3.968-11.715 5.479-1.512 1.7.567-4.157 1.134-10.392.378-4.724 6.046-32.877 9.636-50.449.378-2.267.945-4.346 1.323-6.046.756-3.59 1.323-6.235 1.512-7.558.378-1.889.567-5.857.945-10.581.189-2.078.189-4.157.189-6.424.378-11.9.378-25.7.378-28.342 0-.189-.189-.567-.378-.567l-7.747-2.078h-.378c-2.078.945-20.029 9.825-28.531 17.194a16.886 16.886 0 0 0-4.346 5.1.694.694 0 0 0-.189.567 158.935 158.935 0 0 1-4.913 16.628 26.022 26.022 0 0 1-1.512 3.779 19.606 19.606 0 0 0-.756 1.889c-3.212 7.747-10.2 26.642-11.526 30.232-.756 2.267 0 3.968 0 5.668 0 2.645-4.346 3.968-6.613 2.834-1.7-.756-5.1-3.212-7.18-2.645-.378.189-.756-.189-.756-.756 1.323-5.291 6.046-24.752 10.2-41.191.567-2.078 1.134-4.157 1.512-6.046 2.267-8.125 4.157-14.738 5.291-17.194a25.993 25.993 0 0 1 3.779-5.291c10.392-12.282 36.089-35.145 36.089-35.145s.945-2.834 2.456-2.645c3.4.567 3.59 1.134 20.784 4.535 18.141 3.784 20.409 1.895 19.842 5.673z" transform="translate(-46.395 -123.395)" fill="url(#linear-gradient-4)"/></g><path id="Path_1046" data-name="Path 1046" class="cls-9" d="M130.079 72.866c-10.2-1.134-17.383-2.834-20.784-7.369-3.4-4.724-.189-5.291 2.267-3.59 0 0 1.7-4.346 5.668-1.7a6.578 6.578 0 0 1 9.07 1.893s6.991-2.078 7.558 3.4c0 0 5.291 8.5-3.779 7.366z" transform="translate(-6.618 -59.13)"/><path id="Path_1047" data-name="Path 1047" class="cls-9" d="M125.857 65.2c2.834 3.968 2.078 20.218-5.1 14.36-6.991-5.857.945-13.982.945-13.982z" transform="translate(2.328 -53.732)"/><path id="Path_1048" data-name="Path 1048" class="cls-10" d="M119.614 74.373c-1.323 2.456-1.512 5.1-.189 5.668s3.4-.756 4.913-3.212c1.323-2.456 1.512-5.1.189-5.668s-3.402.756-4.913 3.212z" transform="translate(2.903 -48.545)"/><path id="Path_1049" data-name="Path 1049" class="cls-9" d="M136.269 134.837l-42.891-7.747c-.378 0-.378-.378-.378-.567l1.512-4.346c0-.189.378-.378.567-.378l42.136 7.369c.189 0 .378.378.378.567l-.756 4.535a.5.5 0 0 1-.568.567z" transform="translate(-19.799 -3.386)"/><path id="Path_1050" data-name="Path 1050" d="M130.1 88.168a13.55 13.55 0 0 1-13.037 5.1 14.292 14.292 0 0 1-10.963-10.39 26.552 26.552 0 0 1 3.4-.378c.189 4.157 3.968 6.991 6.991 7.558s9.259-.378 10.014-3.59a15.453 15.453 0 0 1 3.595 1.7z" transform="translate(-8.147 -38.343)" fill="#eefaff"/><path id="Path_1051" data-name="Path 1051" class="cls-9" d="M124.923 66.623a2.2 2.2 0 0 0-.945-3.023l-2.078 3.968a2.065 2.065 0 0 0 3.023-.945z" transform="translate(5.907 -55.155)"/><path id="Path_1052" data-name="Path 1052" class="cls-9" d="M114.87 69.581a6.916 6.916 0 0 0 4.53-8.881l-13.6 4.346a7.19 7.19 0 0 0 9.07 4.535z" transform="translate(-8.414 -57.734)"/><path id="Path_1053" data-name="Path 1053" class="cls-9" d="M116.813 69.313a4.742 4.742 0 0 0 .378-6.613l-6.991 6.235a4.731 4.731 0 0 0 6.613.378z" transform="translate(-4.5 -55.955)"/><path id="Path_1054" data-name="Path 1054" class="cls-9" d="M124.545 67.945a2.184 2.184 0 0 0 1.7-2.645l-4.346.945a2.1 2.1 0 0 0 2.646 1.7z" transform="translate(5.907 -53.643)"/></g><path id="Path_1055" data-name="Path 1055" d="M261.45 74.747l-2.65-.947-17-6.233-8.881-3.4L184.737 46.4l-41-15.3a7 7 0 0 0-8.881 3.968l-21.92 59.519-24.752 66.888-4.535 12.471-8.692 23.43-19.272 51.771a6.714 6.714 0 0 0-.378 1.889 6.61 6.61 0 0 0 4.346 6.8l21.918 8.125 16.439 6.046 43.458 16.061 15.872 5.857 20.029 7.369a7 7 0 0 0 8.881-3.968l78.034-210.108 1.516-3.968a7.12 7.12 0 0 0-4.35-8.503zM250.3 88.163l-1.7 4.537-67.264 180.822a3.89 3.89 0 0 1-4.724 2.267l-14.738-5.48-17.761-6.609-36.845-13.6-16.816-6.235-13.415-4.913a3.914 3.914 0 0 1-2.456-3.4 4.7 4.7 0 0 1 .189-1.512l18.139-48.56 8.692-23.43 4.535-12.471 24.752-66.7 12.66-34.011a3.624 3.624 0 0 1 4.724-2.078l23.43 8.692 48.182 17.761 8.881 3.4 17.005 6.235 2.267.756c1.887.372 2.832 2.639 2.263 4.529z" transform="translate(49.216 27.286)" fill="#eeedf3"/><g id="Group_500" data-name="Group 500" transform="translate(129.086 293.439)"><path id="Path_1056" data-name="Path 1056" class="cls-1" d="M100.2 173.046l15.872 5.857c.378-2.078.945-4.157 1.323-6.046L101.523 167c-.378 1.89-.945 3.968-1.323 6.046z" transform="translate(-39.925 -144.893)"/><path id="Path_1057" data-name="Path 1057" class="cls-1" d="M68.3 161.157l15.872 5.857c.378-.756.567-1.512.756-1.889.378-.945.945-2.267 1.512-3.779L70 155.3c-.566 1.7-1.133 3.779-1.7 5.857z" transform="translate(-68.3 -155.3)"/></g><g id="Group_502" data-name="Group 502" transform="translate(160.002 285.621)"><g id="Group_501" data-name="Group 501"><path id="Path_1058" data-name="Path 1058" d="M88.89 163.7a6.355 6.355 0 0 1-3.779-8.314 6.355 6.355 0 0 1 8.314-3.779 6.355 6.355 0 0 1 3.779 8.314 6.289 6.289 0 0 1-8.314 3.779z" transform="translate(-84.662 -151.162)" fill="#c8c7d9"/></g></g><path id="Path_1059" data-name="Path 1059" class="cls-10" d="M74.017 105.86a11.225 11.225 0 0 0 5.668-.756c1.323-.756 2.456-4.535 2.834-7.369s-3.212-2.456-3.212-2.456a17.129 17.129 0 0 1 3.59-.945c2.267-.378 3.212-2.834-.189-2.834-3.212 0-6.424 1.7-9.636 7.936 0 0-3.212 5.857 0 8.314z" transform="translate(63.761 81.389)"/><path id="Path_1060" data-name="Path 1060" class="cls-10" d="M156.149 104.085c0-2.267-3.779-5.668-4.913-4.346s-3.968 6.424-3.4 9.07a16.688 16.688 0 0 0 1.7 4.346l-.756 1.889s7.18-1.511 7.369-10.959z" transform="translate(131.465 88.455)"/><g id="Group_503" data-name="Group 503" transform="translate(13.178 8.48)"><path id="Path_1061" data-name="Path 1061" class="cls-19" d="M190.831 15.7L47.985 27.609a6.308 6.308 0 0 0-5.668 6.8l3.4 41.758a6.308 6.308 0 0 0 6.8 5.668L66.691 80.7l6.8-.567c1.323 1.512 4.724 5.291 6.235 6.613a3.1 3.1 0 0 0 4.535-.378c1.134-1.512 3.968-5.857 5.1-7.558l34.767-2.834 71.423-5.857a6.308 6.308 0 0 0 5.668-6.8l-3.4-41.758a6.761 6.761 0 0 0-6.988-5.861z" transform="translate(24.464 5.481)"/><path id="Path_1062" data-name="Path 1062" class="cls-19" d="M199.626 16.988l-44.97-5.48a3.71 3.71 0 0 0-3.968 3.023l-5.48 44.97a3.71 3.71 0 0 0 3.023 3.968l44.97 5.48a3.71 3.71 0 0 0 3.968-3.023l5.48-44.97a3.425 3.425 0 0 0-3.023-3.968z" transform="translate(116.001 1.741)"/><path id="Path_1063" data-name="Path 1063" class="cls-19" d="M102.2 67.067a8.137 8.137 0 0 0-10.2-5.29L39.467 78.4a8.137 8.137 0 0 0-5.291 10.2L44.947 123a8.137 8.137 0 0 0 10.2 5.291l5.1-1.7s9.636 6.613 12.849 8.692a4.817 4.817 0 0 0 6.8-2.078c1.512-3.59 5.668-14.549 5.668-14.549l22.107-6.991a8.137 8.137 0 0 0 5.291-10.2z" transform="translate(16.922 46.137)"/><path id="Path_1064" data-name="Path 1064" class="cls-19" d="M187.346 76.1a2.466 2.466 0 0 0-4.535-.756l-4.724 7.747-2.645-11.148a4.442 4.442 0 0 0-5.1-3.212l-30.8 7.369a4.442 4.442 0 0 0-3.212 5.1l7.37 30.8a4.442 4.442 0 0 0 5.1 3.212l30.8-7.369a4.442 4.442 0 0 0 3.212-5.1l-2.645-11.148 7.747 4.724a2.513 2.513 0 0 0 3.779-2.645z" transform="translate(108.063 52.599)"/><path id="Path_1065" data-name="Path 1065" class="cls-19" d="M24.8 46.416c-1.512-3.4-6.424-3.023-7.747.378L7.228 74.947a4.089 4.089 0 0 0 5.668 5.1l19.084-9.07a3.926 3.926 0 0 0 1.889-5.48z" transform="translate(-6.957 30.699)"/><path id="Path_1066" data-name="Path 1066" class="cls-19" d="M25.714 5.078a12.191 12.191 0 1 0 7.369 23.241 12.428 12.428 0 0 0 8.125-15.3 12.369 12.369 0 0 0-15.494-7.941z" transform="translate(2.144 -4.488)"/><path id="Path_1067" data-name="Path 1067" class="cls-19" d="M205.9 169.569a8.238 8.238 0 1 0 1.7 11.526 8.33 8.33 0 0 0-1.7-11.526z" transform="translate(158.292 140.898)"/><circle id="Ellipse_28" data-name="Ellipse 28" class="cls-19" cx="15.494" cy="15.494" r="15.494" transform="rotate(-48.563 261.545 -315.298)"/><path id="Path_1068" data-name="Path 1068" class="cls-19" d="M64.138 110.945a21.1 21.1 0 1 0 26.453 13.793 21.089 21.089 0 0 0-26.453-13.793z" transform="translate(30.796 89.364)"/></g><g id="Group_506" data-name="Group 506" transform="translate(71.447 19.453)"><g id="Group_505" data-name="Group 505"><path id="Path_1069" data-name="Path 1069" d="M197.277 10.3L44.04 22.964a6.864 6.864 0 0 0-6.235 7.18l3.779 44.781a6.864 6.864 0 0 0 7.18 6.235l15.116-1.323 7.369-.567c1.512 1.512 5.1 5.668 6.613 6.991a3.382 3.382 0 0 0 4.913-.378c1.323-1.7 4.346-6.235 5.48-7.936l37.223-3.023L202.19 68.5a6.864 6.864 0 0 0 6.235-7.18l-3.779-44.78a6.923 6.923 0 0 0-7.369-6.24z" transform="translate(-37.795 -10.295)" fill="url(#linear-gradient-5)"/><path id="Path_1070" data-name="Path 1070" class="cls-21" d="M66.609 39.642a7.829 7.829 0 0 0 2.078-5.668l-.378-3.59c-.378-3.968-3.779-7.369-7.747-7.18a7.317 7.317 0 0 0-6.991 7.936l.378 3.968a7.363 7.363 0 0 0 2.834 5.292 15.516 15.516 0 0 0-9.259 11.715 3.065 3.065 0 0 0 3.4 3.59l24-1.889a3.273 3.273 0 0 0 2.834-4.157 16.442 16.442 0 0 0-11.149-10.017z" transform="translate(-29.187 1.18)"/><g id="Group_504" data-name="Group 504" transform="translate(64.428 18.702)"><path id="Path_1071" data-name="Path 1071" class="cls-21" d="M106.673 20.206l-30.61 2.456a4.616 4.616 0 0 0-4.157 4.913L73.229 42.5a4.616 4.616 0 0 0 4.913 4.157l3.023-.189s4.346 4.724 5.857 6.235a2.612 2.612 0 0 0 3.968-.378c1.323-1.7 4.913-7.18 4.913-7.18l12.849-1.134a4.616 4.616 0 0 0 4.157-4.913l-1.323-14.927a4.491 4.491 0 0 0-4.913-3.965z" transform="translate(-71.893 -20.193)"/><path id="Path_1072" data-name="Path 1072" class="cls-22" d="M76.889 28.357a1.864 1.864 0 0 1-1.889-1.7 2.056 2.056 0 0 1 1.7-2.078l24.753-2.079a2.214 2.214 0 0 1 2.078 1.7 2.056 2.056 0 0 1-1.7 2.078l-24.942 2.079z" transform="translate(-69.13 -18.141)"/><path id="Path_1073" data-name="Path 1073" class="cls-22" d="M77.09 31.68a1.864 1.864 0 0 1-1.889-1.7A2.056 2.056 0 0 1 76.9 27.9l24.941-1.889c.945-.189 1.889.756 2.078 1.7a2.056 2.056 0 0 1-1.7 2.078L77.09 31.68z" transform="translate(-68.952 -15.039)"/><path id="Path_1074" data-name="Path 1074" class="cls-22" d="M77.389 34.724a1.864 1.864 0 0 1-1.889-1.7 2.056 2.056 0 0 1 1.7-2.078L88.349 30a2.214 2.214 0 0 1 2.078 1.7 2.056 2.056 0 0 1-1.7 2.078l-11.337.945z" transform="translate(-68.685 -11.47)"/></g><path id="Path_1075" data-name="Path 1075" class="cls-21" d="M133.7 42.61a13.2 13.2 0 0 0-3.4-7.936l-.189-3.212a11.109 11.109 0 0 0-10.014-10.2v-.945a1.9 1.9 0 0 0-3.779.378v.945A11.294 11.294 0 0 0 108 33.352l.189 3.212a14.278 14.278 0 0 0-2.078 8.5l.189 1.323a1.131 1.131 0 0 0 1.323 1.134l5.48-.378a1.633 1.633 0 0 0 .567 1.134 11.8 11.8 0 0 0 6.8 1.7 10.928 10.928 0 0 0 6.424-2.645 1.388 1.388 0 0 0 .378-1.134l5.48-.378a1.131 1.131 0 0 0 1.134-1.323z" transform="translate(22.948 -2.921)"/></g><path id="Path_1076" data-name="Path 1076" class="cls-7" d="M113.631 35.409a5.782 5.782 0 1 1-6.235-5.291 5.629 5.629 0 0 1 6.235 5.291z" transform="translate(19.399 7.303)"/></g><g id="Group_507" data-name="Group 507" transform="translate(280.376 11.091)"><path id="Path_1077" data-name="Path 1077" d="M200.01 67.525l-48.371-5.857a3.55 3.55 0 0 1-3.212-4.157l5.857-48.371a3.549 3.549 0 0 1 4.157-3.212l48.371 5.857a3.549 3.549 0 0 1 3.212 4.157l-5.857 48.371a3.808 3.808 0 0 1-4.157 3.212z" transform="translate(-148.369 -5.869)" fill="#f8aa00"/><path id="Path_1078" data-name="Path 1078" d="M151.3 51.88l4.913-41a2.433 2.433 0 0 1 2.456-2.08l41 4.913a2.433 2.433 0 0 1 2.078 2.456l-4.913 41a2.433 2.433 0 0 1-2.456 2.078l-41-4.913a2.433 2.433 0 0 1-2.078-2.454z" transform="translate(-145.762 -3.262)" fill="#fb3"/><path id="Path_1079" data-name="Path 1079" class="cls-25" d="M174.3 24.42l-5.1 3.968a2.129 2.129 0 0 1-3.023-.378 2.129 2.129 0 0 0-3.023-.378l-7.369 5.857a2.132 2.132 0 0 0 1.134 3.779l.945.189 17.572 2.078 9.825 1.134a2.105 2.105 0 0 0 1.889-3.4L177.319 24.8a2.129 2.129 0 0 0-3.019-.38z" transform="translate(-142.494 10.216)"/><path id="Path_1080" data-name="Path 1080" class="cls-25" d="M164 21.684a3.55 3.55 0 0 1-4.157 3.212 3.642 3.642 0 0 1-3.212-4.157 3.549 3.549 0 0 1 4.157-3.212A3.808 3.808 0 0 1 164 21.684z" transform="translate(-141.075 4.449)"/></g><g id="Group_508" data-name="Group 508" transform="translate(50.623 108.204)"><path id="Path_1081" data-name="Path 1081" d="M89.176 57.709l-56.307 17.95A8.774 8.774 0 0 0 27.2 86.618l11.715 36.656a8.774 8.774 0 0 0 10.959 5.668l5.48-1.7s10.2 7.18 13.793 9.258a5.36 5.36 0 0 0 7.369-2.267c1.7-3.779 6.046-15.494 6.046-15.494l23.619-7.558a8.774 8.774 0 0 0 5.668-10.959l-11.714-36.656a8.586 8.586 0 0 0-10.959-5.857z" transform="translate(-26.774 -57.266)" fill="url(#linear-gradient-6)"/><path id="Path_1082" data-name="Path 1082" class="cls-27" d="M83.194 70.036L37.468 84.585a2.993 2.993 0 0 1-3.59-1.89 2.833 2.833 0 0 1 1.889-3.59l45.726-14.36a2.993 2.993 0 0 1 3.59 1.889 2.7 2.7 0 0 1-1.889 3.402z" transform="translate(-20.603 -50.698)"/><path id="Path_1083" data-name="Path 1083" class="cls-27" d="M85.294 77.114l-45.726 14.36a2.993 2.993 0 0 1-3.59-1.889 2.833 2.833 0 0 1 1.889-3.59l45.726-14.55a2.993 2.993 0 0 1 3.59 1.889 2.958 2.958 0 0 1-1.889 3.78z" transform="translate(-18.735 -44.738)"/><path id="Path_1084" data-name="Path 1084" class="cls-27" d="M62.331 88.025l-20.6 6.613a2.869 2.869 0 0 1-1.7-5.48l20.6-6.613a2.993 2.993 0 0 1 3.59 1.889 2.905 2.905 0 0 1-1.89 3.591z" transform="translate(-16.745 -34.865)"/></g><g id="Group_509" data-name="Group 509" transform="translate(257.83 120.998)"><path id="Path_1085" data-name="Path 1085" d="M186.439 71.147l-5.1 8.314-2.834-11.9a4.557 4.557 0 0 0-5.48-3.4l-33.066 7.936a4.557 4.557 0 0 0-3.4 5.48l7.936 33.066a4.557 4.557 0 0 0 5.48 3.4l33.066-7.936a4.557 4.557 0 0 0 3.4-5.48l-2.834-11.9 8.314 5.1a2.614 2.614 0 0 0 3.968-2.834l-4.535-18.706c-.57-2.651-3.782-3.218-4.915-1.14z" transform="translate(-136.437 -64.037)" fill="#ff3158"/><path id="Path_1086" data-name="Path 1086" class="cls-21" d="M146.6 72.5l11.9 7.369-7.369 12.093" transform="translate(-127.397 -56.509)"/></g><g id="Group_510" data-name="Group 510" transform="translate(-.038 76.97)"><path id="Path_1087" data-name="Path 1087" d="M28.943 63.72l-9.826-20.406a4.512 4.512 0 0 0-8.314.378L.223 73.735a4.5 4.5 0 0 0 6.235 5.48l20.407-9.636a4.315 4.315 0 0 0 2.078-5.859z" transform="translate(.038 -40.735)" fill="#ff7d43"/><path id="Path_1088" data-name="Path 1088" class="cls-21" d="M19.261 53.713l-2.267-3.779.189-.378a1.018 1.018 0 0 0-1.889-.756l-3.212 9.259a7.766 7.766 0 0 0-2.456-1.512c-2.456-.945-5.1-.378-5.668 1.323s.942 3.59 3.588 4.53c2.267 1.134 4.724.567 5.291-1.134l2.263-6.419 1.323 2.267a1.169 1.169 0 0 0 2.078-.189l.756-2.078q.287-.847.004-1.134z" transform="translate(3.485 -34.129)"/></g><g id="Group_511" data-name="Group 511" transform="translate(24.317 -.001)"><path id="Path_1089" data-name="Path 1089" class="cls-7" d="M38.451 9.259A13.087 13.087 0 0 1 13.51 17.2 13.134 13.134 0 0 1 22.012.568a13.27 13.27 0 0 1 16.439 8.691z" transform="translate(-12.852 .001)"/><path id="Path_1090" data-name="Path 1090" class="cls-21" d="M28.758 3.885a4.677 4.677 0 0 0-6.424 1.889 4.732 4.732 0 1 0-4.157 8.5l6.613 3.4a1.8 1.8 0 0 0 2.456-.756l3.212-6.613a5.026 5.026 0 0 0-1.7-6.42z" transform="translate(-10.528 2.92)"/></g><g id="Group_512" data-name="Group 512" transform="translate(370.978 322.197)"><path id="Path_1091" data-name="Path 1091" class="cls-7" d="M212.154 184.654a8.767 8.767 0 1 1-1.7-12.282 8.9 8.9 0 0 1 1.7 12.282z" transform="translate(-196.32 -170.52)"/><path id="Path_1092" data-name="Path 1092" class="cls-21" d="M208.46 178.01a3.2 3.2 0 0 0-3.59-2.834 3.149 3.149 0 0 0-3.779-2.645 3.023 3.023 0 0 0-2.456 3.59l.756 4.913a1.38 1.38 0 0 0 1.323 1.134l4.913-.756a3.154 3.154 0 0 0 2.833-3.402z" transform="translate(-194.326 -168.789)"/></g><g id="Group_514" data-name="Group 514" transform="translate(354.313 70.101)"><circle id="Ellipse_29" data-name="Ellipse 29" cx="16.628" cy="16.628" r="16.628" fill="url(#linear-gradient-7)"/><g id="Group_513" data-name="Group 513" transform="translate(5.48 7.455)"><path id="Path_1093" data-name="Path 1093" class="cls-21" d="M205.549 41.715a1.809 1.809 0 0 0-2.645-.189 35.892 35.892 0 0 1-4.913 3.968l-1.512-.567c-.189 0-.189 0-.378.189l-3.4 8.314c0 .189 0 .189.189.378l1.134.567a4.333 4.333 0 0 0 2.834 3.59l.756.189 4.535 1.889.945.378a1.875 1.875 0 0 0 2.456-.945 1.614 1.614 0 0 0 0-1.323l.756.378a1.875 1.875 0 0 0 2.456-.945 1.426 1.426 0 0 0-.189-1.512 1.653 1.653 0 0 0 1.7-1.134 1.875 1.875 0 0 0-.945-2.456 2.277 2.277 0 0 0 .945-.945 1.875 1.875 0 0 0-.945-2.456l-6.428-2.644c1.326-1.7 3.782-3.401 2.649-4.724z" transform="translate(-188.354 -41.045)"/><path id="Path_1094" data-name="Path 1094" class="cls-21" d="M190.778 51.76l2.078.945a.69.69 0 0 0 .945-.378l3.4-8.5a.69.69 0 0 0-.378-.945l-2.078-.945a.69.69 0 0 0-.945.378l-3.4 8.5a1.443 1.443 0 0 0 .378.945z" transform="translate(-190.4 -40.32)"/></g></g><g id="Group_516" data-name="Group 516" transform="translate(82.226 210.49)"><circle id="Ellipse_30" data-name="Ellipse 30" cx="22.674" cy="22.674" r="22.674" fill="url(#linear-gradient-8)"/><g id="Group_515" data-name="Group 515" transform="translate(8.452 8.474)"><path id="Path_1095" data-name="Path 1095" class="cls-21" d="M58.228 115.913a2.4 2.4 0 0 0-2.834 2.078 51.406 51.406 0 0 1-1.7 8.5l-2.267.756c-.189 0-.378.189-.189.378l3.59 11.715c0 .189.189.378.378.189l1.7-.567a6.536 6.536 0 0 0 6.046 1.512l.945-.378 6.424-2.078 1.512-.378a2.426 2.426 0 0 0 1.7-3.023 3.361 3.361 0 0 0-1.323-1.512l.945-.378a2.426 2.426 0 0 0 1.7-3.023 2.05 2.05 0 0 0-1.512-1.512 2.777 2.777 0 0 0 .945-2.645 2.426 2.426 0 0 0-3.023-1.7 2.236 2.236 0 0 0 .189-1.889 2.426 2.426 0 0 0-3.023-1.7l-9.07 2.834c.379-2.833 1.139-6.801-1.133-7.179z" transform="translate(-45.14 -115.885)"/><path id="Path_1096" data-name="Path 1096" class="cls-21" d="M52.936 136.373l3.023-.945a.918.918 0 0 0 .567-1.134l-3.779-11.9a.918.918 0 0 0-1.134-.567l-3.023.945a.918.918 0 0 0-.567 1.134l3.779 11.9a.918.918 0 0 0 1.134.567z" transform="translate(-47.973 -110.647)"/></g></g></g></svg>