<?xml version="1.0" encoding="iso-8859-1"?>
<!-- Generator: Adobe Illustrator 19.0.0, SVG Export Plug-In . SVG Version: 6.00 Build 0)  -->
<svg version="1.1" id="Layer_1" xmlns="http://www.w3.org/2000/svg" xmlns:xlink="http://www.w3.org/1999/xlink" x="0px" y="0px"
	 viewBox="0 0 450 450" style="enable-background:new 0 0 450 450;" xml:space="preserve">
<g>
	<path style="fill:#E6E6E6;" d="M274.355,272.97c0.19,0.05,0.39,0.09,0.58,0.14c10.46,2.53,20.19,6.93,28.83,12.81
		c23.39,15.92,38.75,42.77,38.75,73.19V444h-47.04h-140.96h-47.03v-84.89c0-30.42,15.35-57.27,38.74-73.19
		c8.64-5.88,18.37-10.28,28.83-12.81c0.19-0.05,0.39-0.09,0.58-0.14"/>
	<path style="fill:#665A52;" d="M154.515,320v124h-47.03v-84.89c0-30.42,15.35-57.27,38.74-73.19
		C151.525,296.12,154.515,307.71,154.515,320z"/>
	<path style="fill:#665A52;" d="M342.515,359.11V444h-47.04V320c0-12.29,2.99-23.88,8.29-34.08
		C327.155,301.84,342.515,328.69,342.515,359.11z"/>
	<path style="fill:#333333;" d="M301.475,444h-12V320c0-12.816,3.1-25.558,8.966-36.846l10.648,5.533
		c-5.052,9.724-7.614,20.259-7.614,31.313V444z"/>
	<path style="fill:#FFFFFF;" d="M322.515,430c-3.313,0-6-2.687-6-6v-73c0-3.313,2.687-6,6-6s6,2.687,6,6v73
		C328.515,427.313,325.828,430,322.515,430z"/>
	<g>
		<path style="opacity:0.44;fill:#333333;enable-background:new    ;" d="M151.165,297.92c-15.21,15.89-24.56,37.45-24.56,61.19V442
			h-19.12v-82.89c0-30.42,15.35-57.27,38.74-73.19C148.205,289.74,149.865,293.75,151.165,297.92z"/>
	</g>
	<path style="fill:#333333;" d="M160.515,444h-12V320c0-11.055-2.562-21.59-7.614-31.313l10.648-5.533
		c5.865,11.288,8.966,24.029,8.966,36.847V444z"/>
	<g>
		<path style="fill:#333333;" d="M259.48,420h-68.96c-23.159,0-42-18.841-42-42h12c0,16.542,13.458,30,30,30h68.96
			c16.542,0,30-13.458,30-30h12C301.48,401.159,282.639,420,259.48,420z"/>
		<path style="fill:#FFFFFF;" d="M259.48,402c-3.313,0-6-2.687-6-6s2.687-6,6-6c6.617,0,12-5.383,12-12c0-3.313,2.687-6,6-6
			s6,2.687,6,6C283.48,391.234,272.714,402,259.48,402z"/>
	</g>
	<path style="fill:#FFD3AE;" d="M266.791,264v50c0,23.196-18.804,42-42,42l0,0c-23.196,0-42-18.804-42-42v-50
		c12.5,6.75,26.8,10.58,41.99,10.58C239.991,274.58,254.291,270.75,266.791,264z"/>
	<path style="fill:#333333;" d="M224.792,362c-26.467,0-48-21.533-48-48v-50h12v50c0,19.851,16.149,36,36,36s36-16.149,36-36v-50h12
		v50C272.792,340.467,251.259,362,224.792,362z"/>
	<path style="fill:#333333;" d="M224.792,362c-3.313,0-6-2.687-6-6v-15c0-3.313,2.687-6,6-6s6,2.687,6,6v15
		C230.792,359.313,228.105,362,224.792,362z"/>
	<path style="opacity:0.44;fill:#333333;enable-background:new    ;" d="M266.791,262c-1.18,2.25,1.37,16.06,0,18.18
		c-6.42,10.03-14.81,18.67-24.62,25.39c-0.19,0.14-0.39,0.27-0.58,0.4c-14.1,9.49-31.08,15.03-49.36,15.03
		c-5.24,0-6.11-4.72-9.44-7.26V264c11.87,5.92,29.24,12,43.41,12C244.061,276,252.891,271.09,266.791,262z"/>
	<g>
		<path style="fill:#333333;" d="M356.5,450H93.73c-3.313,0-6-2.687-6-6s2.687-6,6-6H356.5c3.313,0,6,2.687,6,6
			S359.813,450,356.5,450z"/>
		<path style="fill:#333333;" d="M388.5,450h-11c-3.313,0-6-2.687-6-6s2.687-6,6-6h11c3.313,0,6,2.687,6,6S391.813,450,388.5,450z"
			/>
		<path style="fill:#333333;" d="M72.5,450h-11c-3.313,0-6-2.687-6-6s2.687-6,6-6h11c3.313,0,6,2.687,6,6S75.813,450,72.5,450z"/>
	</g>
	<path style="fill:#333333;" d="M350.495,444h-12v-78.69c0-24.101-10.345-47.23-29.128-65.126c-1.322-1.26-2.536-2.363-3.712-3.375
		c-13.402-11.607-30.024-20.173-48.084-24.786l2.97-11.627c19.856,5.072,38.167,14.521,52.954,27.328
		c1.316,1.131,2.679,2.37,4.15,3.771c21.185,20.184,32.851,46.398,32.851,73.814V444H350.495z"/>
	<path style="fill:#333333;" d="M111.995,444h-12v-78.69c0-27.17,11.483-53.205,32.335-73.31
		c15.477-14.942,35.297-25.843,57.316-31.521l2.996,11.62c-20.015,5.161-37.99,15.029-51.98,28.536
		c-18.487,17.825-28.667,40.792-28.667,64.674V444z"/>
	<g>
		<g>
			<circle style="fill:#FFD3AE;" cx="144.432" cy="161" r="27.89"/>
			<circle style="fill:#FFD3AE;" cx="305.567" cy="161" r="27.89"/>
		</g>
		<g>
			<path style="fill:#333333;" d="M144.432,194.89c-18.687,0-33.89-15.203-33.89-33.89s15.203-33.89,33.89-33.89
				s33.89,15.203,33.89,33.89S163.119,194.89,144.432,194.89z M144.432,139.11c-12.07,0-21.89,9.82-21.89,21.89
				s9.82,21.89,21.89,21.89s21.89-9.82,21.89-21.89S156.502,139.11,144.432,139.11z"/>
			<path style="fill:#333333;" d="M305.567,194.89c-18.687,0-33.89-15.203-33.89-33.89s15.203-33.89,33.89-33.89
				s33.89,15.203,33.89,33.89S324.254,194.89,305.567,194.89z M305.567,139.11c-12.07,0-21.89,9.82-21.89,21.89
				s9.82,21.89,21.89,21.89s21.89-9.82,21.89-21.89S317.638,139.11,305.567,139.11z"/>
		</g>
	</g>
	<path style="fill:#FFD3AE;" d="M274.36,256.97C260.26,266.46,243.28,272,225,272s-35.26-5.54-49.36-15.03
		c-0.19-0.13-0.39-0.26-0.58-0.4c-23.28-15.94-38.56-42.72-38.56-73.07V161v-51.5c0-48.877,39.623-88.5,88.5-88.5l0,0
		c48.877,0,88.5,39.623,88.5,88.5V161v22.5c0,30.35-15.28,57.13-38.56,73.07C274.75,256.71,274.55,256.84,274.36,256.97z"/>
	<path style="fill:#333333;" d="M225,278c-18.88,0-37.107-5.551-52.71-16.052l-0.181-0.123c-0.169-0.114-0.341-0.231-0.509-0.353
		c-25.737-17.656-41.1-46.799-41.1-77.973v-74c0-52.107,42.392-94.5,94.5-94.5s94.5,42.393,94.5,94.5v74
		c0,31.174-15.361,60.315-41.099,77.971c-0.168,0.122-0.341,0.24-0.512,0.355l-0.134,0.091c-0.015,0.01-0.03,0.021-0.045,0.031
		C262.107,272.449,243.88,278,225,278z M225,27c-45.491,0-82.5,37.009-82.5,82.5v74c0,27.241,13.439,52.706,35.949,68.119
		c0.056,0.039,0.112,0.078,0.167,0.118c0.068,0.05,0.139,0.096,0.208,0.143l0.211,0.144C192.605,261.156,208.516,266,225,266
		s32.394-4.844,46.01-14.007l0.368-0.251c0.053-0.039,0.118-0.085,0.172-0.123c22.511-15.413,35.95-40.878,35.95-68.119v-74
		C307.5,64.009,270.491,27,225,27z"/>
	<g>
		<path style="fill:#F7774B;" d="M225,231.01c-4.869,0-9.738-0.513-14.573-1.538c-3.242-0.688-5.312-3.873-4.625-7.114
			c0.688-3.242,3.87-5.313,7.114-4.625c8.018,1.7,16.148,1.7,24.167,0c3.24-0.688,6.427,1.383,7.114,4.625s-1.383,6.427-4.625,7.114
			C234.738,230.497,229.869,231.01,225,231.01z"/>
	</g>
	<g style="opacity:0.44;">
		<path style="fill:#333333;" d="M225.505,244h-1.01c-2.209,0-4-1.791-4-4s1.791-4,4-4h1.01c2.209,0,4,1.791,4,4
			S227.714,244,225.505,244z"/>
	</g>
	<g>
		<g>
			<path style="fill:#333333;" d="M280.473,155.414c-0.453,0-0.912-0.052-1.372-0.159c-7.916-1.852-16.286-1.852-24.203,0
				c-3.224,0.756-6.454-1.248-7.209-4.476c-0.755-3.227,1.249-6.454,4.476-7.209c9.705-2.27,19.964-2.27,29.669,0
				c3.227,0.755,5.23,3.982,4.476,7.209C285.663,153.545,283.197,155.414,280.473,155.414z"/>
		</g>
	</g>
	<path style="opacity:0.44;fill:#333333;enable-background:new    ;" d="M206.64,256.97c10.02,6.74,21.5,11.49,33.86,13.68
		c-5.03,0.89-10.21,1.35-15.5,1.35c-18.28,0-35.26-5.54-49.36-15.03c-0.19-0.13-0.39-0.26-0.58-0.4
		c-23.28-15.94-38.56-42.72-38.56-73.07V161c0-139,54.89-137.301,54.89-134.411l-10.384,15.807
		C165.642,65.783,219.639,48.995,222.505,76c3.145,29.636-32.307,59.922-32.438,62.994c-0.483,11.29-9.201,21.36-21.338,21.975
		c-0.407,0.021-0.817,0.031-1.229,0.031v22.5c0,30.35,15.28,57.13,38.56,73.07C206.25,256.71,206.45,256.84,206.64,256.97z"/>
	<g>
		<g>
			<g>
				<g>
					<circle style="fill:#333333;" cx="190.66" cy="172.116" r="8.009"/>
				</g>
				<path style="fill:#333333;" d="M175.33,179.208c-1.533,0-3.065-0.583-4.236-1.751c-2.347-2.34-2.352-6.139-0.013-8.485
					c6.153-6.171,15.547-7.747,23.376-3.919c2.977,1.456,4.211,5.048,2.756,8.025c-1.456,2.977-5.05,4.209-8.025,2.756
					c-3.22-1.574-7.08-0.925-9.608,1.611C178.407,178.62,176.868,179.208,175.33,179.208z"/>
			</g>
		</g>
		<g>
			<g>
				<g>
					<circle style="fill:#333333;" cx="259.34" cy="172.116" r="8.009"/>
				</g>
				<path style="fill:#333333;" d="M274.669,179.208c-1.539,0-3.077-0.588-4.249-1.764c-2.528-2.536-6.389-3.184-9.608-1.611
					c-2.975,1.456-6.569,0.222-8.025-2.756c-1.455-2.977-0.221-6.57,2.756-8.025c7.83-3.826,17.223-2.251,23.376,3.919
					c2.339,2.347,2.334,6.146-0.013,8.485C277.735,178.624,276.202,179.208,274.669,179.208z"/>
			</g>
		</g>
	</g>
	<g>
		<path style="fill:#333333;" d="M218.057,204c-3.313,0-6-2.687-6-6v-32.927c0-2.692-1.515-5.195-3.859-6.375
			c-7.191-3.621-19.522-7.154-37.44-3.412c-3.24,0.677-6.421-1.403-7.1-4.647c-0.677-3.244,1.403-6.422,4.647-7.1
			c21.306-4.449,36.389-0.04,45.289,4.441c6.453,3.249,10.462,9.799,10.462,17.093V198C224.057,201.313,221.37,204,218.057,204z"/>
	</g>
	<path style="fill:#F7B239;" d="M225.005,65L225.005,65c0,14.974,8.516,28.599,21.911,35.292c4.045,2.021,7.868,4.637,11.339,7.848
		c0.17,0.16,0.34,0.32,0.51,0.48c16.87,15.88,33.74,43.88,33.74,92.38v122c13.45-13.37,21.01-31.55,21.01-50.52V168.5V137V94.5
		c0-48.88-39.63-88.5-88.5-88.5h-0.01h-0.01c-48.87,0-88.5,39.62-88.5,88.5V137v31.5v103.98c0,18.97,7.56,37.15,21.01,50.52V201
		c0-48.5,16.87-76.5,33.74-92.38c0.17-0.16,0.34-0.32,0.51-0.48c3.471-3.211,7.294-5.827,11.339-7.848
		C216.489,93.599,225.005,79.974,225.005,65L225.005,65z"/>
	<g style="opacity:0.44;">
		<path style="fill:#333333;" d="M168.485,137V94.5c0-43.421,31.273-79.531,72.515-87.056C235.815,6.498,230.473,6,225.015,6h-0.01
			h-0.01c-48.87,0-88.5,39.62-88.5,88.5V137v31.5v103.98c0,18.97,7.56,37.15,21.01,50.52V201c0-24.796,4.415-44.223,10.98-59.422
			V137z"/>
	</g>
	<path style="fill:#333333;" d="M292.503,329c-0.776,0-1.558-0.15-2.303-0.46c-2.238-0.931-3.696-3.117-3.696-5.54V201
		c0-37.962-11.015-68.396-31.853-88.011l-0.506-0.477c-2.952-2.731-6.298-5.048-9.912-6.854
		c-8.257-4.125-14.855-10.449-19.229-18.06c-4.375,7.611-10.973,13.935-19.23,18.06c-3.613,1.806-6.959,4.122-9.945,6.885
		l-0.47,0.442c-20.841,19.618-31.855,50.052-31.855,88.014v122c0,2.423-1.458,4.609-3.696,5.54s-4.816,0.423-6.534-1.285
		c-14.477-14.391-22.78-34.356-22.78-54.775V94.5c0-52.107,42.393-94.5,94.5-94.5c52.127,0,94.52,42.393,94.52,94.5v177.98
		c0,20.419-8.303,40.384-22.78,54.775C295.588,328.395,294.059,329,292.503,329z M225.015,12c-45.511,0-82.52,37.009-82.52,82.5
		v177.98c0,11.627,3.187,23.08,9.01,33.032V201c0-28.837,6.181-69.03,35.627-96.749l0.514-0.484
		c3.853-3.565,8.136-6.53,12.766-8.843c11.469-5.73,18.593-17.197,18.593-29.925c0-3.314,2.686-6,6-6s6,2.686,6,6
		c0,12.728,7.125,24.195,18.593,29.925c4.629,2.313,8.913,5.277,12.732,8.812l0.55,0.518c16.25,15.296,35.625,44.5,35.625,96.746
		v104.512c5.823-9.953,9.01-21.405,9.01-33.032V94.5C307.515,49.009,270.505,12,225.015,12z"/>
	<path style="fill:#FFFFFF;" d="M295.515,134.979c-3.313,0-6-2.687-6-6V94.5c0-18.052-7.674-35.411-21.054-47.626
		c-2.447-2.234-2.62-6.029-0.386-8.477c2.234-2.446,6.03-2.618,8.477-0.386c15.864,14.483,24.963,35.073,24.963,56.488v34.479
		C301.515,132.292,298.828,134.979,295.515,134.979z"/>
	<path style="fill:#FFFFFF;" d="M252.502,35.585c-0.783,0-1.578-0.154-2.344-0.479c-4.112-1.748-8.418-3.066-12.8-3.919
		c-3.252-0.633-5.376-3.783-4.742-7.036c0.633-3.253,3.78-5.379,7.036-4.742c5.203,1.013,10.317,2.579,15.199,4.654
		c3.05,1.296,4.471,4.819,3.175,7.869C257.056,34.215,254.836,35.585,252.502,35.585z"/>
</g>
<g>
</g>
<g>
</g>
<g>
</g>
<g>
</g>
<g>
</g>
<g>
</g>
<g>
</g>
<g>
</g>
<g>
</g>
<g>
</g>
<g>
</g>
<g>
</g>
<g>
</g>
<g>
</g>
<g>
</g>
</svg>
