<?xml version="1.0" encoding="iso-8859-1"?>
<!-- Generator: Adobe Illustrator 19.0.0, SVG Export Plug-In . SVG Version: 6.00 Build 0)  -->
<svg version="1.1" id="Layer_1" xmlns="http://www.w3.org/2000/svg" xmlns:xlink="http://www.w3.org/1999/xlink" x="0px" y="0px"
	 viewBox="0 0 459.001 459.001" style="enable-background:new 0 0 459.001 459.001;" xml:space="preserve">
<g>
	<path style="fill:#3A88D6;" d="M278.855,281.971c0.19,0.05,0.39,0.09,0.58,0.14c10.46,2.53,20.19,6.93,28.83,12.81
		c23.39,15.92,38.75,42.77,38.75,73.19v84.89h-47.04h-140.96h-47.03v-84.89c0-30.42,15.35-57.27,38.74-73.19
		c8.64-5.88,18.37-10.28,28.83-12.81c0.19-0.05,0.39-0.09,0.58-0.14"/>
	<path style="fill:#FFD3AE;" d="M159.015,329.001v124h-47.03v-84.89c0-30.42,15.35-57.27,38.74-73.19
		C156.025,305.121,159.015,316.711,159.015,329.001z"/>
	<path style="fill:#FFD3AE;" d="M347.015,368.111v84.89h-47.04v-124c0-12.29,2.99-23.88,8.29-34.08
		C331.655,310.841,347.015,337.691,347.015,368.111z"/>
	<path style="fill:#3A88D6;" d="M347.015,368.111v19.89h-45.7h-1.34v-59c0-12.29,2.99-23.88,8.29-34.08
		C331.655,310.841,347.015,337.691,347.015,368.111z"/>
	<path style="fill:#3A88D6;" d="M159.015,329.001v59h-47.03v-19.89c0-30.42,15.35-57.27,38.74-73.19
		C156.025,305.121,159.015,316.711,159.015,329.001z"/>
	<path style="fill:#333333;" d="M305.975,453.001h-12v-124c0-12.816,3.101-25.558,8.966-36.846l10.648,5.533
		c-5.053,9.724-7.614,20.259-7.614,31.313V453.001z"/>
	<rect x="301.315" y="382.001" style="fill:#333333;" width="47.03" height="12"/>
	<path style="fill:#FFFFFF;" d="M327.015,439.001c-3.313,0-6-2.687-6-6v-27c0-3.313,2.687-6,6-6s6,2.687,6,6v27
		C333.015,436.315,330.328,439.001,327.015,439.001z"/>
	<g>
		<path style="opacity:0.44;fill:#333333;enable-background:new    ;" d="M155.665,306.921c-15.21,15.89-24.56,37.45-24.56,61.19
			v19.89h-19.12v-19.89c0-30.42,15.35-57.27,38.74-73.19C152.705,298.741,154.365,302.751,155.665,306.921z"/>
		<rect x="113.052" y="388.001" style="opacity:0.44;fill:#333333;enable-background:new    ;" width="16.63" height="65"/>
	</g>
	<path style="fill:#333333;" d="M347.015,459.001h-235.03c-3.313,0-6-2.686-6-6v-84.89c0-31.306,15.463-60.521,41.364-78.15
		c9.417-6.408,19.764-11.008,30.753-13.672c0.13-0.033,0.263-0.064,0.396-0.095l0.124-0.029l3.032,11.611
		c-0.151,0.04-0.306,0.076-0.461,0.112l-0.124,0.029c-0.02,0.004-0.084,0.021-0.103,0.026c-9.597,2.321-18.636,6.338-26.865,11.938
		c-22.615,15.392-36.116,40.898-36.116,68.229v78.891h223.03v-78.89c0-27.327-13.505-52.833-36.126-68.23
		c-8.229-5.6-17.267-9.617-26.865-11.938c-0.038-0.01-0.076-0.019-0.114-0.029l-0.113-0.026c-0.154-0.036-0.309-0.072-0.46-0.111
		l3.037-11.609l-1.519,5.805l1.513-5.806l0.121,0.028c0.135,0.031,0.269,0.063,0.4,0.096c10.991,2.664,21.337,7.264,30.752,13.671
		c25.907,17.634,41.374,46.849,41.374,78.15v84.889C353.015,456.315,350.328,459.001,347.015,459.001z"/>
	<path style="fill:#333333;" d="M165.015,453.001h-12v-124c0-11.054-2.562-21.59-7.614-31.313l10.648-5.533
		c5.865,11.289,8.966,24.03,8.966,36.846V453.001z"/>
	<rect x="111.984" y="382.001" style="fill:#333333;" width="47.03" height="12"/>
	<rect x="301.315" y="364.001" style="fill:#333333;" width="47.03" height="12"/>
	<rect x="111.984" y="364.001" style="fill:#333333;" width="47.03" height="12"/>
	<g>
		<path style="fill:#333333;" d="M361,459.001H98.23c-3.313,0-6-2.687-6-6s2.687-6,6-6H361c3.313,0,6,2.687,6,6
			S364.314,459.001,361,459.001z"/>
		<path style="fill:#333333;" d="M393,459.001h-11c-3.313,0-6-2.687-6-6s2.687-6,6-6h11c3.313,0,6,2.687,6,6
			S396.314,459.001,393,459.001z"/>
		<path style="fill:#333333;" d="M77,459.001H66c-3.313,0-6-2.687-6-6s2.687-6,6-6h11c3.313,0,6,2.687,6,6
			S80.314,459.001,77,459.001z"/>
	</g>
	<g id="XMLID_15_">
		<g>
			<polygon style="fill:#F7931E;" points="247.56,303.571 240.45,310.681 229.49,321.641 218.53,310.681 211.42,303.571 
				218.53,296.461 229.49,285.501 240.45,296.461 			"/>
			<polygon style="fill:#F7931E;" points="273.35,275.141 273.35,332.001 240.45,310.681 247.56,303.571 240.45,296.461 			"/>
			<polygon style="fill:#F7931E;" points="218.53,296.461 211.42,303.571 218.53,310.681 185.64,332.001 185.64,275.141 			"/>
		</g>
		<g>
			<path style="fill:#333333;" d="M229.49,321.211c-5.506,0-11.012-2.096-15.203-6.286c-6.261-6.26-6.261-16.446,0-22.706
				l10.961-10.96c2.343-2.343,6.144-2.343,8.484,0l10.96,10.96c6.261,6.26,6.261,16.446,0,22.706l0,0
				C240.501,319.115,234.995,321.211,229.49,321.211z M229.49,293.986l-6.719,6.718c-1.581,1.581-1.581,4.154,0,5.735
				c3.706,3.704,9.732,3.704,13.437,0c1.581-1.581,1.581-4.153,0-5.734L229.49,293.986z"/>
			<path style="fill:#333333;" d="M185.64,338.001c-0.984,0-1.97-0.242-2.865-0.729c-1.932-1.05-3.135-3.073-3.135-5.271v-56.86
				c0-2.199,1.203-4.222,3.135-5.271c1.932-1.05,4.283-0.959,6.129,0.237l32.89,21.32l-6.527,10.069l-23.627-15.315v34.781
				l23.626-15.315l6.527,10.069l-32.89,21.32C187.913,337.677,186.777,338.001,185.64,338.001z"/>
			<path style="fill:#333333;" d="M273.35,338.001c-1.138,0-2.273-0.323-3.263-0.965l-32.899-21.32l6.525-10.07l23.637,15.317
				v-34.784l-23.637,15.317l-6.525-10.07l32.899-21.32c1.846-1.197,4.198-1.286,6.128-0.236c1.932,1.05,3.135,3.073,3.135,5.271
				v56.86c0,2.199-1.203,4.221-3.135,5.271C275.319,337.759,274.334,338.001,273.35,338.001z"/>
		</g>
	</g>
	<g>
		<g>
			<circle style="fill:#FFD3AE;" cx="148.927" cy="186.001" r="27.89"/>
			<circle style="fill:#FFD3AE;" cx="310.062" cy="186.001" r="27.89"/>
		</g>
		<g>
			<path style="fill:#333333;" d="M148.927,219.891c-18.687,0-33.89-15.203-33.89-33.89s15.203-33.89,33.89-33.89
				c18.688,0,33.891,15.203,33.891,33.89S167.614,219.891,148.927,219.891z M148.927,164.111c-12.07,0-21.89,9.82-21.89,21.89
				s9.819,21.89,21.89,21.89s21.891-9.82,21.891-21.89S160.997,164.111,148.927,164.111z"/>
			<path style="fill:#333333;" d="M310.063,219.891c-18.688,0-33.891-15.203-33.891-33.89s15.203-33.89,33.891-33.89
				c18.687,0,33.89,15.203,33.89,33.89S328.749,219.891,310.063,219.891z M310.063,164.111c-12.07,0-21.891,9.82-21.891,21.89
				s9.82,21.89,21.891,21.89s21.89-9.82,21.89-21.89S322.133,164.111,310.063,164.111z"/>
		</g>
	</g>
	<path style="fill:#FFD3AE;" d="M278.855,281.971c-14.1,9.49-31.08,15.03-49.36,15.03s-35.26-5.54-49.36-15.03
		c-0.19-0.13-0.39-0.26-0.58-0.4c-23.28-15.94-38.56-42.72-38.56-73.07v-22.5v-51.5c0-48.877,39.623-88.5,88.5-88.5l0,0
		c48.877,0,88.5,39.623,88.5,88.5v51.5v22.5c0,30.35-15.28,57.13-38.56,73.07C279.245,281.711,279.045,281.841,278.855,281.971z"/>
	<path style="fill:#333333;" d="M229.495,303.001c-18.881,0-37.107-5.551-52.711-16.052l-0.17-0.116
		c-0.174-0.117-0.348-0.236-0.52-0.359c-25.736-17.656-41.1-46.798-41.1-77.973v-74c0-52.107,42.393-94.5,94.5-94.5
		s94.5,42.393,94.5,94.5v74c0,31.172-15.362,60.313-41.097,77.97c-0.173,0.125-0.35,0.245-0.524,0.363l-0.13,0.088
		c-0.014,0.009-0.026,0.018-0.039,0.027C266.602,297.45,248.375,303.001,229.495,303.001z M229.495,52.001
		c-45.49,0-82.5,37.009-82.5,82.5v74c0,27.241,13.439,52.707,35.949,68.119c0.057,0.039,0.111,0.078,0.167,0.118
		c0.07,0.052,0.145,0.1,0.217,0.149l0.196,0.133C197.1,286.157,213.009,291,229.495,291c16.484,0,32.395-4.844,46.009-14.007
		l0.363-0.247c0.052-0.038,0.124-0.09,0.178-0.126c22.511-15.413,35.95-40.878,35.95-68.119v-74
		C311.995,89.01,274.985,52.001,229.495,52.001z"/>
	<g>
		<path style="fill:#333333;" d="M197.885,206.438c-1.58,0-3.13-0.64-4.24-1.75c-1.12-1.12-1.76-2.67-1.76-4.25s0.64-3.12,1.76-4.24
			c1.39-1.39,3.46-2.03,5.41-1.64c0.39,0.08,0.76,0.19,1.13,0.34c0.36,0.15,0.71,0.34,1.03,0.55c0.33,0.22,0.64,0.47,0.91,0.75
			c0.28,0.28,0.53,0.58,0.75,0.91s0.4,0.68,0.55,1.04c0.15,0.36,0.27,0.74,0.34,1.12c0.08,0.39,0.12,0.78,0.12,1.17
			s-0.04,0.79-0.12,1.18c-0.07,0.38-0.19,0.76-0.34,1.12s-0.33,0.71-0.55,1.03c-0.22,0.33-0.47,0.64-0.75,0.92
			C201.015,205.798,199.465,206.438,197.885,206.438z"/>
		<path style="fill:#333333;" d="M265.885,206.438c-0.39,0-0.79-0.04-1.17-0.11c-0.38-0.08-0.76-0.2-1.12-0.35
			c-0.37-0.15-0.71-0.33-1.04-0.55c-0.33-0.22-0.64-0.47-0.91-0.74c-0.28-0.28-0.53-0.59-0.75-0.92c-0.22-0.32-0.4-0.67-0.55-1.03
			s-0.27-0.74-0.34-1.12c-0.08-0.39-0.12-0.79-0.12-1.18s0.04-0.78,0.12-1.17c0.07-0.38,0.19-0.76,0.34-1.12s0.33-0.71,0.55-1.04
			c0.22-0.33,0.47-0.63,0.75-0.91c0.27-0.28,0.58-0.53,0.91-0.75c0.33-0.21,0.67-0.4,1.04-0.55c0.36-0.15,0.74-0.26,1.12-0.34
			c1.95-0.39,4.02,0.25,5.41,1.64c0.28,0.28,0.53,0.58,0.75,0.91s0.4,0.68,0.55,1.04s0.27,0.74,0.34,1.12
			c0.08,0.39,0.12,0.78,0.12,1.17s-0.04,0.79-0.12,1.18c-0.07,0.38-0.19,0.76-0.34,1.12s-0.33,0.71-0.55,1.03
			c-0.22,0.33-0.47,0.64-0.75,0.92C269.015,205.798,267.465,206.438,265.885,206.438z"/>
	</g>
	<g>
		<path style="fill:#333333;" d="M222.552,220.001c-3.313,0-6-2.687-6-6v-16.857c0-3.204-2.606-5.81-5.811-5.81h-28.58
			c-3.313,0-6-2.687-6-6s2.687-6,6-6h28.58c9.82,0,17.811,7.989,17.811,17.81v16.857
			C228.552,217.315,225.865,220.001,222.552,220.001z"/>
		<path style="fill:#333333;" d="M276.828,191.335h-24c-3.313,0-6-2.687-6-6s2.687-6,6-6h24c3.313,0,6,2.687,6,6
			S280.142,191.335,276.828,191.335z"/>
	</g>
	<g>
		<path style="fill:#333333;" d="M241.495,255.335h-24c-3.313,0-6-2.687-6-6s2.687-6,6-6h24c3.313,0,6,2.687,6,6
			S244.809,255.335,241.495,255.335z"/>
	</g>
	<path style="opacity:0.44;fill:#333333;enable-background:new    ;" d="M211.135,281.971c10.02,6.74,21.5,11.49,33.86,13.68
		c-5.03,0.89-10.21,1.35-15.5,1.35c-18.28,0-35.26-5.54-49.36-15.03c-0.19-0.13-0.39-0.26-0.58-0.4
		c-23.28-15.94-38.56-42.72-38.56-73.07v-22.5c0-139,54.89-137.301,54.89-134.411l-10.384,15.807
		c-15.364,23.387-11.848,34.546,2.499,57.604c2.423,3.895,6.693,35.922,6.562,38.994c-0.483,11.29-9.201,21.36-21.338,21.975
		c-0.407,0.021-0.817,0.031-1.229,0.031v22.5c0,30.35,15.28,57.13,38.56,73.07C210.745,281.711,210.945,281.841,211.135,281.971z"/>
	<g>
		<path style="fill:#665A52;" d="M172.58,115.202c-0.96,19.87-14.99,36.68-34.14,41.31c-0.17-22.1,2.39-66.91,2.7-73.1
			c1.82-36.86,38.49-44.5,55.51-46.5c1.77-0.21,3.52-0.31,5.24-0.31c20.27-0.04,39.71-7.26,56.21-19.02
			c9.89-7.05,21.98-11.31,35.17-11.57c32.02-0.61,59.61,23.52,63.3,55.32c2.94,25.35-9.56,48.59-29.73,60.83
			c-8.27,5.04-17.85,8.21-28.17,8.92c-6.41,0.44-12.65-0.11-18.59-1.5c-24.02-5.63-48.82-6.28-73.36-3.67
			c-0.57,0.06-1.14,0.11-1.72,0.15C192.7,126.902,181.22,122.692,172.58,115.202z"/>
	</g>
	<g style="opacity:0.44;">
		<path style="fill:#333333;" d="M177.708,83.413c1.82-36.86,38.49-44.5,55.51-46.5c1.77-0.21-11.058-0.35-31.328-0.31
			c-1.72,0-3.47,0.1-5.24,0.31c-17.02,2-53.69,9.64-55.51,46.5c-0.31,6.19-2.87,51-2.7,73.1c19.15-4.63,33.18-21.44,34.14-41.31
			c1.098,0.952,2.243,1.849,3.428,2.692C176.706,101.557,177.539,86.777,177.708,83.413z"/>
	</g>
	<path style="fill:#333333;" d="M138.44,162.512c-1.325,0-2.627-0.439-3.692-1.271c-1.443-1.127-2.293-2.852-2.308-4.683
		c-0.152-19.837,1.866-57.648,2.53-70.073c0.082-1.54,0.144-2.691,0.178-3.373c1.441-29.196,23.035-47.721,60.802-52.159
		c1.962-0.233,3.963-0.351,5.94-0.351c18.105-0.036,36.342-6.228,52.728-17.906c11.254-8.022,24.579-12.408,38.534-12.683
		c16.998-0.327,33.438,5.71,46.34,16.988c12.899,11.275,21.08,26.773,23.037,43.64c3.086,26.607-9.701,52.769-32.577,66.651
		c-9.257,5.641-19.936,9.023-30.87,9.776c-6.849,0.471-13.699-0.083-20.369-1.644c-21.686-5.083-45.694-6.275-71.358-3.546
		c-0.648,0.068-1.289,0.125-1.941,0.17c-10.027,0.685-19.823-1.558-28.387-6.398c-4.627,17.83-18.835,32.259-37.177,36.694
		C139.383,162.457,138.91,162.512,138.44,162.512z M294.437,12.001c-0.352,0-0.7,0.003-1.053,0.01
		c-11.524,0.227-22.523,3.843-31.802,10.457c-18.424,13.131-39.061,20.094-59.681,20.134c-1.519,0-3.044,0.09-4.545,0.268
		c-22.124,2.6-48.79,11.794-50.224,40.838c-0.035,0.693-0.098,1.859-0.181,3.417c-0.572,10.728-2.163,40.52-2.47,60.909
		c12.662-6.037,21.41-18.747,22.104-33.121c0.111-2.294,1.521-4.324,3.634-5.227c2.114-0.903,4.554-0.521,6.29,0.983
		c7.809,6.77,17.793,10.111,28.08,9.407c0.504-0.035,1.002-0.079,1.501-0.131c27.001-2.872,52.357-1.595,75.357,3.795
		c5.504,1.288,11.159,1.744,16.81,1.356c9.023-0.621,17.827-3.407,25.459-8.058c18.887-11.461,29.438-33.054,26.892-55.015
		C347.333,33.782,322.765,12.001,294.437,12.001z"/>
	<path style="fill:#FFFFFF;" d="M317.508,112.775c-2.028,0-4.007-1.028-5.135-2.888c-1.72-2.833-0.816-6.523,2.016-8.242
		c12.881-7.817,20.08-22.554,18.342-37.546c-0.869-7.483-3.873-14.486-8.688-20.25c-2.124-2.543-1.784-6.327,0.759-8.451
		c2.545-2.124,6.326-1.784,8.452,0.759c6.316,7.563,10.257,16.747,11.396,26.559c2.277,19.638-7.157,38.945-24.035,49.188
		C319.642,112.494,318.568,112.775,317.508,112.775z"/>
	<path style="fill:#FFFFFF;" d="M313.989,34.511c-0.884,0-1.782-0.197-2.631-0.611c-3.282-1.605-6.771-2.731-10.371-3.347
		c-3.267-0.559-5.461-3.66-4.902-6.926c0.558-3.266,3.656-5.461,6.926-4.902c4.728,0.809,9.31,2.287,13.619,4.395
		c2.977,1.456,4.21,5.049,2.754,8.026C318.344,33.274,316.21,34.511,313.989,34.511z"/>
	<polygon style="fill:#333333;" points="178.58,115.203 166.58,115.203 178.58,115.193 	"/>
	<path style="fill:#FFFFFF;" d="M300,219.001c-3.313,0-6-2.687-6-6v-64c0-3.313,2.687-6,6-6s6,2.687,6,6v64
		C306,216.315,303.314,219.001,300,219.001z"/>
	<rect x="223.5" y="315.001" style="fill:#333333;" width="12" height="138"/>
	<g>
		<g>
			<g>
				<path style="fill:#333333;" d="M252.5,364.452c-0.39,0-0.79-0.04-1.17-0.11c-0.38-0.08-0.76-0.2-1.12-0.35
					c-0.37-0.15-0.71-0.33-1.04-0.55c-0.33-0.22-0.64-0.47-0.91-0.74c-0.28-0.28-0.53-0.59-0.75-0.92c-0.22-0.32-0.4-0.67-0.55-1.03
					c-0.15-0.36-0.27-0.74-0.34-1.12c-0.08-0.39-0.12-0.79-0.12-1.18c0-0.39,0.04-0.78,0.12-1.17c0.07-0.38,0.19-0.76,0.34-1.12
					s0.33-0.71,0.55-1.04c0.22-0.33,0.47-0.63,0.75-0.91c0.27-0.28,0.58-0.53,0.91-0.75c0.33-0.21,0.67-0.4,1.04-0.55
					c0.36-0.15,0.74-0.26,1.12-0.34c1.95-0.39,4.02,0.25,5.41,1.64c0.28,0.28,0.53,0.58,0.75,0.91c0.22,0.33,0.4,0.68,0.55,1.04
					c0.15,0.36,0.27,0.74,0.34,1.12c0.08,0.39,0.12,0.78,0.12,1.17s-0.04,0.79-0.12,1.18c-0.07,0.38-0.19,0.76-0.34,1.12
					s-0.33,0.71-0.55,1.03c-0.22,0.33-0.47,0.64-0.75,0.92C255.63,363.812,254.08,364.452,252.5,364.452z"/>
			</g>
			<g>
				<path style="fill:#333333;" d="M252.5,430.001c-0.39,0-0.79-0.04-1.17-0.11c-0.38-0.08-0.76-0.2-1.12-0.35
					c-0.37-0.15-0.71-0.33-1.04-0.55c-0.33-0.22-0.64-0.47-0.91-0.74c-0.28-0.28-0.53-0.59-0.75-0.92c-0.22-0.32-0.4-0.67-0.55-1.03
					c-0.15-0.36-0.27-0.74-0.34-1.12c-0.08-0.39-0.12-0.79-0.12-1.18c0-0.39,0.04-0.78,0.12-1.17c0.07-0.38,0.19-0.76,0.34-1.12
					s0.33-0.71,0.55-1.04c0.22-0.33,0.47-0.63,0.75-0.91c0.27-0.28,0.58-0.53,0.91-0.75c0.33-0.21,0.67-0.4,1.04-0.55
					c0.36-0.15,0.74-0.26,1.12-0.34c1.95-0.39,4.02,0.25,5.41,1.64c0.28,0.28,0.53,0.58,0.75,0.91c0.22,0.33,0.4,0.68,0.55,1.04
					c0.15,0.36,0.27,0.74,0.34,1.12c0.08,0.39,0.12,0.78,0.12,1.17s-0.04,0.79-0.12,1.18c-0.07,0.38-0.19,0.76-0.34,1.12
					s-0.33,0.71-0.55,1.03c-0.22,0.33-0.47,0.64-0.75,0.92C255.63,429.361,254.08,430.001,252.5,430.001z"/>
			</g>
			<g>
				<path style="fill:#333333;" d="M252.5,397.227c-0.39,0-0.79-0.04-1.17-0.11c-0.38-0.08-0.76-0.2-1.12-0.35
					c-0.37-0.15-0.71-0.33-1.04-0.55c-0.33-0.22-0.64-0.47-0.91-0.74c-0.28-0.28-0.53-0.59-0.75-0.92c-0.22-0.32-0.4-0.67-0.55-1.03
					c-0.15-0.36-0.27-0.74-0.34-1.12c-0.08-0.39-0.12-0.79-0.12-1.18c0-0.39,0.04-0.78,0.12-1.17c0.07-0.38,0.19-0.76,0.34-1.12
					s0.33-0.71,0.55-1.04c0.22-0.33,0.47-0.63,0.75-0.91c0.27-0.28,0.58-0.53,0.91-0.75c0.33-0.21,0.67-0.4,1.04-0.55
					c0.36-0.15,0.74-0.26,1.12-0.34c1.95-0.39,4.02,0.25,5.41,1.64c0.28,0.28,0.53,0.58,0.75,0.91c0.22,0.33,0.4,0.68,0.55,1.04
					c0.15,0.36,0.27,0.74,0.34,1.12c0.08,0.39,0.12,0.78,0.12,1.17s-0.04,0.79-0.12,1.18c-0.07,0.38-0.19,0.76-0.34,1.12
					s-0.33,0.71-0.55,1.03c-0.22,0.33-0.47,0.64-0.75,0.92C255.63,396.587,254.08,397.227,252.5,397.227z"/>
			</g>
		</g>
		<g>
			<g>
				<path style="fill:#333333;" d="M206.5,364.452c-0.39,0-0.79-0.04-1.17-0.11c-0.38-0.08-0.76-0.2-1.12-0.35
					c-0.37-0.15-0.71-0.33-1.04-0.55c-0.33-0.22-0.64-0.47-0.91-0.74c-0.28-0.28-0.53-0.59-0.75-0.92c-0.22-0.32-0.4-0.67-0.55-1.03
					c-0.15-0.36-0.27-0.74-0.34-1.12c-0.08-0.39-0.12-0.79-0.12-1.18c0-0.39,0.04-0.78,0.12-1.17c0.07-0.38,0.19-0.76,0.34-1.12
					s0.33-0.71,0.55-1.04c0.22-0.33,0.47-0.63,0.75-0.91c0.27-0.28,0.58-0.53,0.91-0.75c0.33-0.21,0.67-0.4,1.04-0.55
					c0.36-0.15,0.74-0.26,1.12-0.34c1.95-0.39,4.02,0.25,5.41,1.64c0.28,0.28,0.53,0.58,0.75,0.91c0.22,0.33,0.4,0.68,0.55,1.04
					c0.15,0.36,0.27,0.74,0.34,1.12c0.08,0.39,0.12,0.78,0.12,1.17s-0.04,0.79-0.12,1.18c-0.07,0.38-0.19,0.76-0.34,1.12
					s-0.33,0.71-0.55,1.03c-0.22,0.33-0.47,0.64-0.75,0.92C209.63,363.812,208.08,364.452,206.5,364.452z"/>
			</g>
			<g>
				<path style="fill:#333333;" d="M206.5,430.001c-0.39,0-0.79-0.04-1.17-0.11c-0.38-0.08-0.76-0.2-1.12-0.35
					c-0.37-0.15-0.71-0.33-1.04-0.55c-0.33-0.22-0.64-0.47-0.91-0.74c-0.28-0.28-0.53-0.59-0.75-0.92c-0.22-0.32-0.4-0.67-0.55-1.03
					c-0.15-0.36-0.27-0.74-0.34-1.12c-0.08-0.39-0.12-0.79-0.12-1.18c0-0.39,0.04-0.78,0.12-1.17c0.07-0.38,0.19-0.76,0.34-1.12
					s0.33-0.71,0.55-1.04c0.22-0.33,0.47-0.63,0.75-0.91c0.27-0.28,0.58-0.53,0.91-0.75c0.33-0.21,0.67-0.4,1.04-0.55
					c0.36-0.15,0.74-0.26,1.12-0.34c1.95-0.39,4.02,0.25,5.41,1.64c0.28,0.28,0.53,0.58,0.75,0.91c0.22,0.33,0.4,0.68,0.55,1.04
					c0.15,0.36,0.27,0.74,0.34,1.12c0.08,0.39,0.12,0.78,0.12,1.17s-0.04,0.79-0.12,1.18c-0.07,0.38-0.19,0.76-0.34,1.12
					s-0.33,0.71-0.55,1.03c-0.22,0.33-0.47,0.64-0.75,0.92C209.63,429.361,208.08,430.001,206.5,430.001z"/>
			</g>
			<g>
				<path style="fill:#333333;" d="M206.5,397.227c-0.39,0-0.79-0.04-1.17-0.11c-0.38-0.08-0.76-0.2-1.12-0.35
					c-0.37-0.15-0.71-0.33-1.04-0.55c-0.33-0.22-0.64-0.47-0.91-0.74c-0.28-0.28-0.53-0.59-0.75-0.92c-0.22-0.32-0.4-0.67-0.55-1.03
					c-0.15-0.36-0.27-0.74-0.34-1.12c-0.08-0.39-0.12-0.79-0.12-1.18c0-0.39,0.04-0.78,0.12-1.17c0.07-0.38,0.19-0.76,0.34-1.12
					s0.33-0.71,0.55-1.04c0.22-0.33,0.47-0.63,0.75-0.91c0.27-0.28,0.58-0.53,0.91-0.75c0.33-0.21,0.67-0.4,1.04-0.55
					c0.36-0.15,0.74-0.26,1.12-0.34c1.95-0.39,4.02,0.25,5.41,1.64c0.28,0.28,0.53,0.58,0.75,0.91c0.22,0.33,0.4,0.68,0.55,1.04
					c0.15,0.36,0.27,0.74,0.34,1.12c0.08,0.39,0.12,0.78,0.12,1.17s-0.04,0.79-0.12,1.18c-0.07,0.38-0.19,0.76-0.34,1.12
					s-0.33,0.71-0.55,1.03c-0.22,0.33-0.47,0.64-0.75,0.92C209.63,396.587,208.08,397.227,206.5,397.227z"/>
			</g>
		</g>
	</g>
</g>
<g>
</g>
<g>
</g>
<g>
</g>
<g>
</g>
<g>
</g>
<g>
</g>
<g>
</g>
<g>
</g>
<g>
</g>
<g>
</g>
<g>
</g>
<g>
</g>
<g>
</g>
<g>
</g>
<g>
</g>
</svg>
