<?xml version="1.0" encoding="iso-8859-1"?>
<!-- Generator: Adobe Illustrator 19.0.0, SVG Export Plug-In . SVG Version: 6.00 Build 0)  -->
<svg version="1.1" id="Layer_1" xmlns="http://www.w3.org/2000/svg" xmlns:xlink="http://www.w3.org/1999/xlink" x="0px" y="0px"
	 viewBox="0 0 485 485" style="enable-background:new 0 0 485 485;" xml:space="preserve">
<g>
	<g id="XMLID_33_">
		<g>
			<path style="fill:#F8F8F9;" d="M337.5,367.5c0,0-5.3,50-50,50s-45-40-45-40c29.4,0,50-40,50-40
				C303.4,349.7,337.5,367.5,337.5,367.5z"/>
			<path style="fill:#F8F8F9;" d="M242.5,377.5c0,0-0.3,40-45,40s-50-50-50-50s34.1-17.8,45-30C192.5,337.5,213.1,377.5,242.5,377.5
				z"/>
			<path style="fill:#F79C7B;" d="M359.3,375.5c72.9,30.8,73.2,77,73.2,77s0,11,0,25h-380c0-14,0-25,0-25s0.8-45.9,73.3-76.9
				c6.6-2.8,13.8-5.6,21.7-8.1c0,0,5.3,50,50,50s45-40,45-40s0.3,40,45,40s50-50,50-50C345.4,370,352.7,372.7,359.3,375.5z"/>
			<path style="fill:#FFD248;" d="M382.5,87.5v120v100c0,0-1.5,44.1-23.2,68c-6.6-2.8-13.9-5.5-21.8-8c0,0-34.1-17.8-45-30v-31.8
				c37.4-19.3,60-60.5,60-108.2v-55l-40-50c-53.1,59.7-180,50-180,50v55c0,47.7,22.6,88.9,60,108.2v31.8c-10.9,12.2-45,30-45,30
				c-7.9,2.5-15.1,5.3-21.7,8.1c-21.8-23.9-23.3-68.1-23.3-68.1v-100v-120c0,0,20.3-80,140-80S382.5,87.5,382.5,87.5z"/>
			<path style="fill:#FFD7A3;" d="M192.5,305.7c14.6,7.6,31.4,11.8,50,11.8s35.4-4.2,50-11.8v31.8c0,0-20.6,40-50,40s-50-40-50-40
				V305.7z"/>
			<path style="fill:#FFE1B2;" d="M292.5,305.7c-14.6,7.6-31.4,11.8-50,11.8s-35.4-4.2-50-11.8c-37.4-19.3-60-60.5-60-108.2v-55
				c0,0,126.9,9.7,180-50l40,50v55C352.5,245.2,329.9,286.4,292.5,305.7z"/>
		</g>
	</g>
	<g>
		<path style="fill:#231F20;" d="M371.052,372.56c17.413-26.051,18.885-63.078,18.944-64.805L390,86.563l-0.23-0.908
			c-0.228-0.898-5.828-22.247-27.083-43.464C327.749,7.32,278.044,0,242.5,0c-64.397,0-100.902,22.944-120.186,42.191
			C101.058,63.408,95.458,84.757,95.23,85.655L95,86.563V307.5l0.004,0.254c0.059,1.732,1.533,38.876,19.047,64.947
			C46.637,405.106,45.035,450.38,45,452.369L45,485h395v-32.549C439.987,450.447,438.869,404.825,371.052,372.56z M110,88.552
			c1.134-3.681,6.733-19.596,22.911-35.743C157.691,28.074,195.587,15,242.5,15c46.507,0,84.188,12.862,108.97,37.195
			c16.501,16.203,22.363,32.663,23.53,36.376v218.775c-0.1,2.231-1.949,37.452-17.986,59.114
			c-5.294-2.093-10.859-4.072-16.614-5.909c-8.933-4.705-30.926-17.168-40.4-26.11v-24.293c17.821-10.188,32.66-25.406,43.088-44.27
			C354.152,245.868,360,222.224,360,197.5v-57.631l-47.196-58.995l-5.908,6.642c-49.988,56.201-172.595,47.601-173.824,47.506
			L125,134.405V197.5c0,24.724,5.848,48.368,16.912,68.379c10.429,18.864,25.267,34.082,43.088,44.27v24.293
			c-9.474,8.942-31.468,21.405-40.401,26.111c-5.339,1.708-10.794,3.691-16.534,6c-16.124-21.684-17.967-57.026-18.064-59.204
			V88.552H110z M242.5,370c-21.539,0-38.627-27.637-42.5-34.43v-18.273c13.182,5.108,27.424,7.702,42.5,7.702
			c15.08,0,29.326-2.595,42.5-7.701v18.271C281.118,342.378,264.033,370,242.5,370z M289.037,299.048
			C275.075,306.315,259.417,310,242.5,310s-32.575-3.685-46.537-10.952l-0.023-0.013c-16.986-8.766-31.129-22.74-40.901-40.414
			C145.2,240.826,140,219.691,140,197.5v-47.113c11.979,0.418,35.974,0.561,63.564-3.063c48.348-6.349,84.754-20.963,108.399-43.489
			L345,145.131V197.5c0,22.191-5.2,43.326-15.039,61.121C320.19,276.295,306.047,290.27,289.037,299.048z M190.785,349.238
			c7.429,11.301,22.768,30.526,43.306,34.864C231.865,393.643,224.162,410,197.5,410c-30.121,0-39.208-27.083-41.694-38.443
			C163.928,367.119,179.882,358.006,190.785,349.238z M294.215,349.238c10.904,8.767,26.857,17.881,34.979,22.319
			C326.708,382.917,317.621,410,287.5,410c-15.415,0-26.341-5.297-32.476-15.744c-2.094-3.565-3.315-7.198-4.028-10.171
			C271.491,379.711,286.797,360.523,294.215,349.238z M425,470H60v-17.405c0.055-1.418,2.35-41.708,68.729-70.091
			c4.559-1.934,8.88-3.62,13.085-5.139c1.333,5.171,3.597,11.958,7.361,18.765C159.619,415.017,176.33,425,197.5,425
			c25.051,0,38.15-11.093,45-22.552c6.85,11.459,19.949,22.552,45,22.552c21.17,0,37.881-9.983,48.326-28.87
			c3.773-6.823,6.039-13.627,7.371-18.803c4.574,1.613,8.998,3.306,13.184,5.082c19.407,8.198,45.542,22.843,59.846,46.043
			c8.217,13.329,8.75,23.542,8.773,24.136V470z"/>
		<path style="fill:#231F20;" d="M250,197.5h-15v40c0,4.143,3.358,7.5,7.5,7.5h20v-15H250V197.5z"/>
	</g>
</g>
<g>
</g>
<g>
</g>
<g>
</g>
<g>
</g>
<g>
</g>
<g>
</g>
<g>
</g>
<g>
</g>
<g>
</g>
<g>
</g>
<g>
</g>
<g>
</g>
<g>
</g>
<g>
</g>
<g>
</g>
</svg>
